# xmcd
#
# Track frame offsets: 
#        150
#        41927
#        103175
#        121190
#        133295
#        159980
#
# Disc length: 2548 seconds
#
# Revision: 0
# Processed by: cddbd v1.5.2PL0 Copyright (c) Steve Scherf et al.
# Submitted via: ExactAudioCopy v0.99pb5
#
DISCID=5109f206
DTITLE=Eric Clapton  - Flawless Disc 04 (MVR 358) 7-4-97
DYEAR=1900
DGENRE=
TTITLE0=1st Song-Tango
TTITLE1=Put It Where You Want It
TTITLE2=Jerry Roll
TTITLE3=In A Sentimental Mood
TTITLE4=Layla
TTITLE5=Everyday I Have The Blues
EXTD=
EXTT0=
EXTT1=
EXTT2=
EXTT3=
EXTT4=
EXTT5=
PLAYORDER=
